#!Matlab matrix to amc conversion
:FULLY-SPECIFIED
:DEGREES
102
root 0.879128 1.902253 46.123540 10.601221 0.363437 2.456459
lowerback -2.142512 -1.660226 -5.221364
upperback 0.302539 -2.083467 2.360029
thorax 1.751376 -1.093983 5.287923
lowerneck -21.107558 -3.655482 -11.700152
upperneck 18.066305 -3.955399 11.758484
head 9.623218 -1.345568 5.494096
rclavicle 0.000000 -0.000000
rhumerus -36.497054 20.804980 -82.077734
rradius 36.489689
rwrist -16.282478
rhand -28.856200 -18.800500
rfingers 7.125020
rthumb -2.212790 -48.768800
lclavicle 0.000000 -0.000000
lhumerus -25.597234 -23.497755 87.290150
lradius 28.887672
lwrist 6.858916
lhand -19.668800 -28.799300
lfingers 7.125020
lthumb 6.659510 1.076010
rfemur -40.941790 -3.871022 21.173103
rtibia 58.003241
rfoot -22.949385 -10.772784
rtoes -20.766800
lfemur -16.892960 -3.306765 -25.932183
ltibia 32.072611
lfoot -23.072798 4.688480
ltoes -22.051700
103
root 0.903565 1.880925 46.670263 10.895200 0.510690 2.596777
lowerback -2.040221 -1.842315 -5.326973
upperback 0.278707 -2.328052 2.373472
thorax 1.705318 -1.215585 5.351397
lowerneck -20.830493 -3.627152 -11.989981
upperneck 17.585823 -3.887145 12.013284
head 9.400452 -1.311228 5.631650
rclavicle 0.000000 -0.000000
rhumerus -38.512267 20.281803 -81.655954
rradius 36.608593
rwrist -16.821990
rhand -28.856200 -18.800500
rfingers 7.125020
rthumb -2.212790 -48.768800
lclavicle 0.000000 -0.000000
lhumerus -23.864339 -27.559817 87.194353
lradius 31.688363
lwrist 9.481579
lhand -19.668800 -28.799300
lfingers 7.125020
lthumb 6.659510 1.076010
rfemur -42.748619 -2.999545 20.827362
rtibia 53.956093
rfoot -23.464275 -11.054503
rtoes -20.766800
lfemur -14.867268 -3.326781 -26.163684
ltibia 30.514132
lfoot -23.644482 4.800076
ltoes -22.051700
104
root 0.926342 1.856294 47.232639 11.296498 0.946193 3.622402
lowerback -2.057030 -2.320535 -6.226569
upperback 0.247478 -2.928706 2.177391
thorax 1.793781 -1.525266 5.620527
lowerneck -20.352843 -3.575105 -12.673670
upperneck 16.568567 -3.763737 12.737118
head 8.959265 -1.229561 6.004231
rclavicle 0.000000 -0.000000
rhumerus -42.713150 19.061525 -80.636262
rradius 36.701154
rwrist -17.944169
rhand -28.856200 -18.800500
rfingers 7.125020
rthumb -2.212790 -48.768800
lclavicle 0.000000 -0.000000
lhumerus -19.962385 -34.104644 85.462571
lradius 37.096718
lwrist 13.668311
lhand -19.668800 -28.799300
lfingers 7.125020
lthumb 6.659510 1.076010
rfemur -45.687819 -0.749743 18.496554
rtibia 44.730734
rfoot -24.284725 -11.328112
rtoes -20.766800
lfemur -8.292148 -2.802756 -27.275150
ltibia 23.729311
lfoot -23.264123 4.627847
ltoes -22.051700
105
root 0.942170 1.809056 47.807823 11.284283 3.876886 8.800699
lowerback -3.266122 -3.999303 -11.273267
upperback 0.199937 -4.888689 0.457196
thorax 2.866238 -2.564858 6.486277
lowerneck -20.528918 -3.715020 -12.940987
upperneck 16.293436 -4.208198 13.978464
head 8.995075 -1.276480 6.452694
rclavicle -0.000000 -0.000000
rhumerus -51.166713 15.201408 -78.663763
rradius 34.401703
rwrist -18.287201
rhand -28.856200 -18.800500
rfingers 7.125020
rthumb -2.212790 -48.768800
lclavicle -0.000000 -0.000000
lhumerus -9.861543 -25.207694 74.082549
lradius 42.530506
lwrist 10.201166
lhand -19.668800 -28.799300
lfingers 7.125020
lthumb 6.659510 1.076010
rfemur -49.747282 13.785744 1.841275
rtibia 20.592633
rfoot -29.215394 -14.396250
rtoes -20.766800
lfemur 18.689901 0.041928 -31.245898
ltibia -10.253528
lfoot -12.009961 1.876023
ltoes -22.051700
106
root 0.945558 1.643770 48.345690 12.413693 5.572514 7.569495
lowerback -3.313042 -4.009039 -10.314702
upperback 0.031934 -4.931354 1.863341
thorax 2.853564 -2.589105 7.386347
lowerneck -22.397449 -3.568105 -12.534057
upperneck 18.395519 -3.632551 12.175541
head 10.001891 -1.173069 5.918010
rclavicle -0.000000 -0.000000
rhumerus -47.719215 7.161578 -68.945838
rradius 26.414018
rwrist -8.217015
rhand -28.856200 -18.800500
rfingers 7.125020
rthumb -2.212790 -48.768800
lclavicle -0.000000 -0.000000
lhumerus -12.604472 -28.231101 80.937638
lradius 44.243976
lwrist 12.975108
lhand -19.668800 -28.799300
lfingers 7.125020
lthumb 6.659510 1.076010
rfemur -48.522840 8.071513 7.693816
rtibia 34.448470
rfoot -23.922401 -12.961830
rtoes -20.766800
lfemur 7.058200 2.275072 -31.263054
ltibia 3.694212
lfoot -14.605836 -4.304718
ltoes -22.051700
107
root 0.948308 1.575581 48.830025 12.633457 7.151490 7.512200
lowerback -3.808853 -4.298246 -10.176561
upperback 0.237184 -5.283681 2.000941
thorax 3.432433 -2.793010 7.370961
lowerneck -24.083859 -3.785315 -11.802722
upperneck 19.287100 -3.978746 11.889206
head 10.714025 -1.274684 5.691380
rclavicle -0.000000 -0.000000
rhumerus -47.062996 2.954851 -66.216112
rradius 21.667588
rwrist -3.523422
rhand -28.856200 -18.800500
rfingers 7.125020
rthumb -2.212790 -48.768800
lclavicle -0.000000 -0.000000
lhumerus -15.032077 -23.122045 81.253216
lradius 45.904238
lwrist 13.562505
lhand -19.668800 -28.799300
lfingers 7.125020
lthumb 6.659510 1.076010
rfemur -47.518578 8.720659 7.775427
rtibia 34.063288
rfoot -22.523121 -12.920034
rtoes -20.766800
lfemur 6.911364 3.281110 -31.200541
ltibia 2.610841
lfoot -12.096164 -6.838634
ltoes -22.051700
108
root 0.960281 1.523005 49.294843 13.069565 8.871521 7.278910
lowerback -4.683458 -4.486714 -9.792044
upperback 0.725143 -5.476010 2.154796
thorax 4.484950 -2.940836 7.205060
lowerneck -26.167809 -4.091775 -10.727954
upperneck 20.112922 -4.512497 11.571810
head 11.505379 -1.427020 5.365777
rclavicle -0.000000 -0.000000
rhumerus -46.085632 -3.026287 -62.264130
rradius 15.393122
rwrist 2.095930
rhand -28.856200 -18.800500
rfingers 7.125020
rthumb -2.212790 -48.768800
lclavicle -0.000000 -0.000000
lhumerus -17.510419 -17.108929 81.431133
lradius 48.216310
lwrist 14.513746
lhand -19.668800 -28.799300
lfingers 7.125020
lthumb 6.659510 1.076010
rfemur -47.156855 11.539355 6.502883
rtibia 33.497337
rfoot -22.911735 -13.966008
rtoes -20.766800
lfemur 6.551829 4.564358 -31.078659
ltibia 1.350255
lfoot -8.682821 -9.834734
ltoes -22.051700
109
root 0.984089 1.483990 49.735586 13.629096 9.619044 7.319378
lowerback -5.768367 -4.461939 -9.690014
upperback 1.332545 -5.340525 2.126146
thorax 5.724707 -2.937615 7.021276
lowerneck -27.674594 -4.318267 -10.036726
upperneck 20.548624 -4.939349 11.580924
head 12.025671 -1.529628 5.225592
rclavicle -0.000000 -0.000000
rhumerus -45.078581 -9.015616 -57.768385
rradius 9.734215
rwrist 6.980757
rhand -28.856200 -18.800500
rfingers 7.125020
rthumb -2.212790 -48.768800
lclavicle -0.000000 -0.000000
lhumerus -17.883063 -12.998811 81.144080
lradius 50.248368
lwrist 15.598729
lhand -19.668800 -28.799300
lfingers 7.125020
lthumb 6.659510 1.076010
rfemur -47.817345 14.380403 4.986746
rtibia 33.219404
rfoot -23.297072 -15.293887
rtoes -20.766800
lfemur 6.868455 6.085871 -30.867374
ltibia 0.965692
lfoot -6.401920 -13.539073
ltoes -22.051700
110
root 1.011941 1.461370 50.165420 14.033636 9.332806 7.850986
lowerback -6.625657 -4.335304 -10.162662
upperback 1.832953 -5.057701 1.882648
thorax 6.716953 -2.852618 6.973812
lowerneck -28.338336 -4.346233 -10.012460
upperneck 20.673588 -5.064125 12.060529
head 12.230077 -1.507873 5.406698
rclavicle -0.000000 -0.000000
rhumerus -44.050796 -14.020660 -53.422611
rradius 5.797016
rwrist 11.731854
rhand -28.856200 -18.800500
rfingers 7.125020
rthumb -2.212790 -48.768800
lclavicle -0.000000 -0.000000
lhumerus -16.902046 -11.160883 80.626102
lradius 51.367258
lwrist 16.183041
lhand -19.668800 -28.799300
lfingers 7.125020
lthumb 6.659510 1.076010
rfemur -48.692645 14.605591 5.133035
rtibia 33.602125
rfoot -21.626943 -15.691449
rtoes -20.766800
lfemur 7.878905 7.655002 -30.636567
ltibia 1.709484
lfoot -5.695451 -17.747136
ltoes -22.051700
111
root 1.038504 1.463618 50.603747 14.148054 8.573218 8.552847
lowerback -7.159257 -4.180820 -10.842463
upperback 2.236439 -4.761868 1.530434
thorax 7.427954 -2.747200 6.957178
lowerneck -28.564981 -4.203552 -10.231486
upperneck 20.631682 -4.968576 12.781512
head 12.261360 -1.385591 5.745715
rclavicle -0.000000 -0.000000
rhumerus -42.659748 -18.454728 -49.462655
rradius 3.037168
rwrist 17.129506
rhand -28.856200 -18.800500
rfingers 7.125020
rthumb -2.212790 -48.768800
lclavicle -0.000000 -0.000000
lhumerus -16.167487 -10.370238 80.065578
lradius 51.684010
lwrist 15.935833
lhand -19.668800 -28.799300
lfingers 7.125020
lthumb 6.659510 1.076010
rfemur -49.218093 12.918010 6.739635
rtibia 34.789699
rfoot -18.672494 -15.178895
rtoes -20.766800
lfemur 9.074248 9.125214 -30.340718
ltibia 2.888241
lfoot -5.048131 -21.441446
ltoes -22.051700
112
root 1.064732 1.502890 51.058553 13.888732 7.674299 9.150273
lowerback -7.360438 -4.046428 -11.382892
upperback 2.587133 -4.539674 1.134447
thorax 7.890916 -2.662286 6.835237
lowerneck -28.468945 -3.910744 -10.467326
upperneck 20.381078 -4.694055 13.571528
head 12.131156 -1.181115 6.127931
rclavicle 0.000000 -0.000000
rhumerus -40.887589 -22.552597 -46.023564
rradius 1.194794
rwrist 23.117928
rhand -28.856200 -18.800500
rfingers 7.125020
rthumb -2.212790 -48.768800
lclavicle 0.000000 -0.000000
lhumerus -16.086724 -10.352772 79.386803
lradius 51.261115
lwrist 14.934445
lhand -19.668800 -28.799300
lfingers 7.125020
lthumb 6.659510 1.076010
rfemur -49.317687 10.576402 8.973054
rtibia 36.777477
rfoot -15.018469 -14.195549
rtoes -20.766800
lfemur 10.440532 10.300061 -29.799520
ltibia 4.015515
lfoot -3.510308 -23.948184
ltoes -22.051700
